<svg xmlns="http://www.w3.org/2000/svg"  viewBox="0 0 26 26" width="26px" height="26px"><path d="M 5 0 L 5 11 L 8 16 L 11 11 L 11 4 L 22 4 C 22.550781 4 23 4.449219 23 5 L 23 16 L 8 16 L 9.96875 19.28125 L 9.71875 19.46875 L 7 21.71875 L 7 19 L 4 19 C 3.449219 19 3 18.550781 3 18 L 3 5 C 3 4.449219 3.449219 4 4 4 L 4 2 C 2.34375 2 1 3.34375 1 5 L 1 18 C 1 19.65625 2.34375 21 4 21 L 5 21 L 5 26 L 11 21 L 22 21 C 23.65625 21 25 19.65625 25 18 L 25 5 C 25 3.34375 23.65625 2 22 2 L 11 2 L 11 0 Z M 8 10 L 10 10.65625 L 10 10.71875 L 8.4375 13.3125 L 7.5625 13.3125 L 6 10.71875 L 6 10.65625 Z"/></svg>